<?xml version="1.0" encoding="iso-8859-1"?>
<!-- Generator: Adobe Illustrator 23.0.3, SVG Export Plug-In . SVG Version: 6.00 Build 0)  -->
<svg version="1.1" id="Layer_1" xmlns="http://www.w3.org/2000/svg" xmlns:xlink="http://www.w3.org/1999/xlink" x="0px" y="0px"
	 viewBox="0 0 640 480" style="enable-background:new 0 0 640 480;" xml:space="preserve">
<g>
	<path style="fill:#05476B;" d="M267.285,347.941c-60.133,29.234-132.838,4.097-162.072-56.037
		c-9.71-19.974-13.758-42.168-11.705-64.183l39.457,3.68c-1.38,14.795,1.347,29.725,7.887,43.177
		c19.681,40.482,68.626,57.404,109.108,37.724L267.285,347.941z"/>
</g>
<g>
	<path style="fill:#11CE81;" d="M307.71,316.206l-30.546-25.246c10.051-12.158,16.341-26.891,18.196-42.603l39.354,4.644
		C331.965,276.301,322.628,298.157,307.71,316.206z"/>
</g>
<g>
	<path style="fill:#1095C4;" d="M334.475,222.749l-39.273,5.279c-1.155-8.592-3.685-16.947-7.519-24.833
		c-6.725-13.832-17.134-25.422-30.101-33.517l20.983-33.616c19.295,12.044,34.771,29.267,44.757,49.806
		C329.004,197.558,332.757,209.966,334.475,222.749z"/>
</g>
<g>
	<path style="fill:#11CEED;" d="M135.821,216.298l-38.075-10.982c9.51-32.975,32.656-60.488,63.503-75.484
		c7.387-3.591,15.138-6.438,23.037-8.46c21.876-5.602,44.873-4.949,66.504,1.886l-11.94,37.786
		c-14.567-4.603-30.035-5.047-44.734-1.284c-5.32,1.362-10.548,3.284-15.54,5.711C157.808,175.566,142.225,194.092,135.821,216.298z
		"/>
</g>
<polyline style="fill:none;stroke:#0071BC;stroke-width:2;stroke-miterlimit:10;" points="254.686,120.797 267.367,93.851 
	425.876,93.851 "/>
<polyline style="fill:none;stroke:#0071BC;stroke-width:2;stroke-miterlimit:10;" points="333.941,226.998 354.547,234.924 
	425.876,234.924 "/>
<polyline style="fill:none;stroke:#0071BC;stroke-width:2;stroke-miterlimit:10;" points="310.164,320.518 316.505,331.614 
	425.876,331.614 "/>
<polyline style="fill:none;stroke:#0071BC;stroke-width:2;stroke-miterlimit:10;" points="267.367,352.22 276.878,371.241 
	425.876,371.241 "/>
<g>
	<path style="fill:#F9F9F9;" d="M434.886,79.483v9.085h5.623v-9.085h5.379v22.679h-5.379v-9.489h-5.623v9.489h-5.379V79.483H434.886
		z"/>
	<path style="fill:#F9F9F9;" d="M453.659,83.554h-4.887v-4.071h15.19v4.071h-4.924v18.607h-5.379V83.554z"/>
	<path style="fill:#F9F9F9;" d="M483.717,94.22c-0.124-2.153-0.328-5.081-0.244-7.503h-0.124c-0.495,2.422-1.233,5.215-1.765,6.965
		l-2.383,8.11h-3.817l-2.3-7.974c-0.531-1.818-1.27-4.644-1.681-7.1h-0.124c-0.084,2.456-0.247,5.317-0.411,7.57l-0.451,7.874h-4.64
		l2.012-22.679h5.666l2.216,8.21c0.779,2.86,1.478,5.384,1.972,7.941h0.08c0.411-2.523,1.026-5.081,1.765-7.941l2.176-8.21h5.666
		l1.681,22.679h-4.8L483.717,94.22z"/>
	<path style="fill:#F9F9F9;" d="M492.967,79.483h5.379v18.944h7.103v3.734h-12.482V79.483z"/>
	<path style="fill:#F9F9F9;" d="M521.183,84.127h-7.063l-0.615,3.903c0.247,0,0.535,0,0.822,0c1.15,0.033,3.49,0.471,5.008,1.648
		c1.477,1.178,2.3,2.827,2.3,5.014c0,4.274-3.45,7.74-9.28,7.74c-1.889,0-3.941-0.404-5.008-0.875l0.822-3.5
		c0.983,0.404,2.38,0.774,3.817,0.774c2.627,0,4.349-1.379,4.349-3.734c0-2.927-2.708-3.903-5.786-3.903
		c-0.739,0-1.354,0-1.889,0.067l1.478-10.97h11.045V84.127z"/>
	<path style="fill:#F9F9F9;" d="M529.323,103.508l9.607-24.295h3.53l-9.647,24.295H529.323z"/>
	<path style="fill:#F9F9F9;" d="M563.897,101.825c-0.779,0.303-2.3,0.538-4.189,0.538c-7.06,0-10.426-4.778-10.426-11.204
		c0-8.547,5.79-11.878,11.168-11.878c1.885,0,3.199,0.304,3.734,0.607l-0.903,3.7c-0.615-0.234-1.314-0.437-2.504-0.437
		c-3.039,0-5.79,2.153-5.79,7.773c0,5.418,2.504,7.537,5.79,7.537c0.903,0,1.929-0.168,2.587-0.336L563.897,101.825z"/>
	<path style="fill:#F9F9F9;" d="M566.247,97.653c1.11,0.504,2.998,0.874,4.556,0.874c2.547,0,3.777-1.077,3.777-2.556
		c0-1.649-1.23-2.458-3.57-3.701c-3.777-1.885-5.215-4.274-5.215-6.326c0-3.634,2.955-6.663,8.745-6.663
		c1.805,0,3.53,0.404,4.352,0.808l-0.862,3.803c-0.782-0.404-1.972-0.774-3.53-0.774c-2.3,0-3.41,1.144-3.41,2.355
		c0,1.345,0.822,2.052,3.817,3.533c3.654,1.816,5.011,4.106,5.011,6.495c0,4.138-3.737,6.863-9.156,6.863
		c-2.216,0-4.392-0.471-5.295-0.908L566.247,97.653z"/>
	<path style="fill:#F9F9F9;" d="M582.43,97.653c1.11,0.504,2.998,0.874,4.556,0.874c2.547,0,3.777-1.077,3.777-2.556
		c0-1.649-1.23-2.458-3.57-3.701c-3.777-1.885-5.215-4.274-5.215-6.326c0-3.634,2.955-6.663,8.745-6.663
		c1.805,0,3.53,0.404,4.352,0.808l-0.862,3.803c-0.782-0.404-1.972-0.774-3.53-0.774c-2.3,0-3.41,1.144-3.41,2.355
		c0,1.345,0.822,2.052,3.818,3.533c3.654,1.816,5.011,4.106,5.011,6.495c0,4.138-3.737,6.863-9.156,6.863
		c-2.216,0-4.392-0.471-5.295-0.908L582.43,97.653z"/>
	<path style="fill:#F9F9F9;" d="M598.615,97.989c1.066,0.505,2.547,0.841,3.981,0.841c2.587,0,4.025-1.312,4.025-3.163
		c0-2.422-2.26-3.466-5.008-3.466h-0.739v-3.23h0.531c1.972-0.033,4.516-0.705,4.516-2.826c0-1.581-1.23-2.523-3.119-2.523
		c-1.19,0-2.383,0.37-3.366,0.875l-0.699-3.332c1.11-0.573,3.283-1.144,5.502-1.144c4.68,0,7.02,2.489,7.02,5.282
		c0,2.188-1.477,4.004-3.817,4.912v0.067c2.584,0.707,4.556,2.592,4.556,5.552c0,3.332-3.122,6.596-8.909,6.596
		c-2.176,0-4.065-0.438-5.255-0.977L598.615,97.989z"/>
</g>
<g>
	<path style="fill:#F9F9F9;" d="M439.284,223.548h4.572v15.096c0,6.38-3.255,7.335-6.582,7.335c-0.935,0-1.767-0.133-2.286-0.329
		l0.381-3.618c0.45,0.131,0.901,0.165,1.489,0.165c1.317,0,2.426-0.494,2.426-3.356V223.548z"/>
	<path style="fill:#F9F9F9;" d="M451.275,240.65l-1.038,5.066h-4.4l5.058-22.168h5.438l4.539,22.168h-4.398l-1.007-5.066H451.275z
		 M455.052,237.296l-0.762-4.637c-0.243-1.348-0.556-3.552-0.762-5.032h-0.104c-0.243,1.48-0.59,3.781-0.832,5.064l-0.866,4.605
		H455.052z"/>
	<path style="fill:#F9F9F9;" d="M465.972,245.716l-5.233-22.168h5.024l1.664,9.571c0.415,2.367,0.9,5.098,1.21,7.695h0.071
		c0.313-2.631,0.694-5.295,1.109-7.794l1.594-9.472h4.987l-5.334,22.168H465.972z"/>
	<path style="fill:#F9F9F9;" d="M481.534,240.65l-1.038,5.066h-4.4l5.058-22.168h5.438l4.539,22.168h-4.398l-1.007-5.066H481.534z
		 M485.311,237.296l-0.762-4.637c-0.243-1.348-0.556-3.552-0.762-5.032h-0.104c-0.243,1.48-0.59,3.781-0.832,5.064l-0.866,4.605
		H485.311z"/>
	<path style="fill:#F9F9F9;" d="M493.184,241.309c0.936,0.493,2.53,0.854,3.845,0.854c2.149,0,3.187-1.052,3.187-2.499
		c0-1.612-1.038-2.402-3.013-3.618c-3.187-1.842-4.4-4.178-4.4-6.184c0-3.552,2.494-6.513,7.379-6.513
		c1.523,0,2.979,0.395,3.673,0.79l-0.728,3.717c-0.66-0.395-1.664-0.757-2.979-0.757c-1.941,0-2.877,1.118-2.877,2.302
		c0,1.315,0.694,2.006,3.221,3.453c3.083,1.776,4.228,4.013,4.228,6.348c0,4.045-3.154,6.709-7.726,6.709
		c-1.87,0-3.706-0.461-4.468-0.888L493.184,241.309z"/>
	<path style="fill:#F9F9F9;" d="M518.548,245.386c-0.657,0.296-1.941,0.526-3.534,0.526c-5.957,0-8.798-4.671-8.798-10.952
		c0-8.354,4.886-11.611,9.424-11.611c1.591,0,2.699,0.297,3.151,0.593l-0.762,3.617c-0.519-0.229-1.109-0.427-2.113-0.427
		c-2.564,0-4.886,2.105-4.886,7.598c0,5.296,2.113,7.367,4.886,7.367c0.762,0,1.628-0.165,2.18-0.328L518.548,245.386z"/>
	<path style="fill:#F9F9F9;" d="M521.05,223.878c1.422-0.264,3.221-0.428,4.956-0.428c2.494,0,4.711,0.329,6.234,1.644
		c1.422,1.217,1.836,2.697,1.836,4.605c0,2.369-1.213,4.506-3.602,5.558v0.066c1.594,0.592,2.389,2.007,2.841,4.375
		c0.451,2.466,1.075,5.197,1.489,6.019h-4.747c-0.276-0.625-0.795-2.861-1.142-5.296c-0.415-2.762-1.142-3.551-2.666-3.551h-0.66
		v8.847h-4.539V223.878z M525.589,233.547h0.798c1.975,0,3.117-1.513,3.117-3.453c0-1.875-0.798-3.223-2.841-3.289
		c-0.381,0-0.832,0.032-1.075,0.131V233.547z"/>
	<path style="fill:#F9F9F9;" d="M541.878,223.548v22.168h-4.539v-22.168H541.878z"/>
	<path style="fill:#F9F9F9;" d="M545.935,223.878c1.283-0.264,3.015-0.428,4.747-0.428c2.702,0,4.815,0.362,6.338,1.71
		c1.388,1.152,2.011,2.994,2.011,4.869c0,2.401-0.764,4.077-1.975,5.328c-1.456,1.447-3.811,2.105-5.684,2.105
		c-0.31,0-0.623,0-0.9,0v8.255h-4.539V223.878z M550.473,233.942c0.209,0.066,0.451,0.066,0.728,0.066
		c2.288,0,3.326-1.547,3.326-3.618c0-1.94-0.832-3.453-2.945-3.453c-0.415,0-0.832,0.066-1.109,0.165V233.942z"/>
	<path style="fill:#F9F9F9;" d="M564.306,227.528h-4.124v-3.98H573v3.98h-4.155v18.188h-4.539V227.528z"/>
</g>
<g>
	<path style="fill:#F9F9F9;" d="M436.262,318.406c1.586-0.202,3.601-0.33,5.537-0.33c2.787,0,5.266,0.254,6.971,1.266
		c1.586,0.936,2.053,2.076,2.053,3.546c0,1.823-1.356,3.468-4.03,4.278v0.052c1.782,0.454,2.674,1.544,3.175,3.367
		c0.505,1.899,1.201,4.002,1.665,4.633h-5.304c-0.309-0.48-0.892-2.202-1.277-4.076c-0.467-2.126-1.28-2.734-2.983-2.734h-0.735
		v6.81h-5.073V318.406z M441.336,325.849h0.889c2.207,0,3.484-1.163,3.484-2.657c0-1.443-0.889-2.48-3.175-2.532
		c-0.426,0-0.927,0.025-1.198,0.101V325.849z"/>
	<path style="fill:#F9F9F9;" d="M465.507,327.723h-5.963v4.608h6.738v2.886h-11.812v-17.064h11.348v2.886h-6.275v3.923h5.963
		V327.723z"/>
	<path style="fill:#F9F9F9;" d="M473.879,331.318l-1.16,3.899H467.8l5.654-17.064h6.079l5.073,17.064h-4.916l-1.126-3.899H473.879z
		 M478.101,328.735l-0.851-3.569c-0.271-1.037-0.621-2.736-0.851-3.874h-0.117c-0.271,1.138-0.659,2.911-0.93,3.899l-0.968,3.544
		H478.101z"/>
	<path style="fill:#F9F9F9;" d="M499.369,334.965c-0.735,0.227-2.169,0.404-3.951,0.404c-6.659,0-9.835-3.596-9.835-8.432
		c0-6.43,5.461-8.937,10.535-8.937c1.778,0,3.018,0.229,3.522,0.456l-0.851,2.785c-0.58-0.175-1.239-0.328-2.362-0.328
		c-2.866,0-5.461,1.62-5.461,5.847c0,4.078,2.362,5.674,5.461,5.674c0.851,0,1.819-0.128,2.437-0.254L499.369,334.965z"/>
	<path style="fill:#F9F9F9;" d="M505.924,321.216h-4.61v-3.064h14.328v3.064h-4.645v14.001h-5.073V321.216z"/>
	<path style="fill:#F9F9F9;" d="M526.69,318.153h5.111v11.622c0,4.911-3.639,5.647-7.356,5.647c-1.047,0-1.974-0.101-2.557-0.254
		l0.429-2.785c0.501,0.101,1.006,0.126,1.665,0.126c1.469,0,2.708-0.379,2.708-2.581V318.153z"/>
	<path style="fill:#F9F9F9;" d="M535.371,331.825c1.047,0.379,2.828,0.658,4.298,0.658c2.403,0,3.563-0.81,3.563-1.924
		c0-1.241-1.16-1.849-3.368-2.785c-3.563-1.418-4.919-3.216-4.919-4.76c0-2.736,2.787-5.014,8.249-5.014
		c1.703,0,3.33,0.303,4.105,0.608l-0.814,2.862c-0.738-0.305-1.86-0.581-3.33-0.581c-2.169,0-3.216,0.86-3.216,1.771
		c0,1.012,0.776,1.544,3.601,2.657c3.446,1.369,4.727,3.09,4.727,4.888c0,3.115-3.525,5.164-8.636,5.164
		c-2.09,0-4.143-0.355-4.995-0.684L535.371,331.825z"/>
</g>
<g>
	<path style="fill:#F9F9F9;" d="M436.262,358.451c0.98-0.199,2.305-0.325,3.63-0.325c2.068,0,3.684,0.274,4.852,1.295
		c1.06,0.873,1.537,2.27,1.537,3.691c0,1.821-0.583,3.092-1.511,4.041c-1.114,1.096-2.916,1.596-4.347,1.596
		c-0.24,0-0.477,0-0.688,0v6.258h-3.473V358.451z M439.735,366.081c0.158,0.049,0.343,0.049,0.557,0.049
		c1.748,0,2.545-1.172,2.545-2.741c0-1.472-0.637-2.619-2.253-2.619c-0.319,0-0.637,0.049-0.848,0.126V366.081z"/>
	<path style="fill:#F9F9F9;" d="M451.853,358.201v6.733h3.632v-6.733h3.473v16.806h-3.473v-7.032h-3.632v7.032h-3.473v-16.806
		H451.853z"/>
	<path style="fill:#F9F9F9;" d="M462.038,358.451c0.982-0.199,2.307-0.325,3.632-0.325c2.068,0,3.684,0.274,4.849,1.295
		c1.062,0.873,1.539,2.27,1.539,3.691c0,1.821-0.585,3.092-1.511,4.041c-1.114,1.096-2.916,1.596-4.349,1.596
		c-0.237,0-0.477,0-0.688,0v6.258h-3.473V358.451z M465.51,366.081c0.16,0.049,0.345,0.049,0.557,0.049
		c1.75,0,2.545-1.172,2.545-2.741c0-1.472-0.637-2.619-2.253-2.619c-0.317,0-0.637,0.049-0.848,0.126V366.081z"/>
	<path style="fill:#F9F9F9;" d="M476.254,376.006L482.457,358h2.279l-6.229,18.006H476.254z"/>
	<path style="fill:#F9F9F9;" d="M490.017,358.201h3.473v14.041h4.586v2.766h-8.059V358.201z"/>
	<path style="fill:#F9F9F9;" d="M503.141,371.168l-0.794,3.84h-3.367l3.87-16.806h4.161l3.473,16.806h-3.365l-0.77-3.84H503.141z
		 M506.031,368.624l-0.583-3.515c-0.186-1.021-0.425-2.694-0.583-3.815h-0.08c-0.186,1.121-0.451,2.867-0.637,3.84l-0.663,3.49
		H506.031z"/>
	<path style="fill:#F9F9F9;" d="M512.451,358.451c1.088-0.199,2.465-0.325,3.792-0.325c1.908,0,3.604,0.25,4.77,1.247
		c1.088,0.922,1.405,2.045,1.405,3.492c0,1.795-0.928,3.415-2.756,4.213v0.051c1.219,0.447,1.828,1.521,2.173,3.316
		c0.345,1.87,0.822,3.941,1.14,4.563h-3.632c-0.211-0.473-0.609-2.169-0.874-4.014c-0.317-2.093-0.874-2.692-2.042-2.692h-0.503
		v6.707h-3.473V358.451z M515.924,365.781h0.611c1.511,0,2.385-1.145,2.385-2.617c0-1.421-0.611-2.443-2.173-2.493
		c-0.291,0-0.637,0.024-0.822,0.099V365.781z"/>
	<path style="fill:#F9F9F9;" d="M527.751,371.168l-0.794,3.84h-3.367l3.87-16.806h4.161l3.473,16.806h-3.365l-0.771-3.84H527.751z
		 M530.641,368.624l-0.583-3.515c-0.186-1.021-0.425-2.694-0.583-3.815h-0.08c-0.186,1.121-0.451,2.867-0.637,3.84l-0.663,3.49
		H530.641z"/>
	<path style="fill:#F9F9F9;" d="M538.997,375.007l-4.003-16.806h3.844l1.273,7.257c0.317,1.795,0.688,3.864,0.926,5.834h0.054
		c0.237-1.994,0.531-4.012,0.848-5.909l1.219-7.182h3.816l-4.081,16.806H538.997z"/>
	<path style="fill:#F9F9F9;" d="M556.045,367.627h-4.081v4.538h4.612v2.843h-8.085v-16.806h7.767v2.843h-4.295v3.864h4.081V367.627z
		"/>
	<path style="fill:#F9F9F9;" d="M558.941,358.201h3.473v14.041H567v2.766h-8.059V358.201z"/>
</g>
</svg>
